<svg width="130" height="80" viewBox="0 0 130 80" fill="none" xmlns="http://www.w3.org/2000/svg">
<path d="M95.5972 63.2844C95.7428 63.2858 95.8871 63.2595 96.0212 63.2072C96.1554 63.1549 96.2764 63.0778 96.3769 62.9805C96.4774 62.8832 96.5551 62.7679 96.6053 62.6418C96.6555 62.5156 96.6771 62.3813 96.6687 62.2471C96.6687 61.5115 96.1879 61.16 95.2014 61.16H93.6074V65.0116H94.2069V63.3327H94.9437L94.9605 63.3531L96.1037 65.0116H96.7449L95.5149 63.2951L95.5972 63.2844ZM94.9039 62.8986H94.2087V61.5965H95.0898C95.545 61.5965 96.0639 61.6652 96.0639 62.2153C96.0639 62.8479 95.5388 62.8986 94.9003 62.8986M79.9589 58.4577H71.4579V46.1688C71.4579 43.2384 71.4012 39.4661 67.0365 39.4661C62.6089 39.4661 61.9315 42.6589 61.9315 45.9555V58.4568H53.4305V33.186H61.5914V36.6395H61.7057C62.5224 35.3505 63.7026 34.2901 65.1205 33.5712C66.5385 32.8524 68.1411 32.502 69.7577 32.5574C78.3738 32.5574 79.9625 37.7888 79.9625 44.5945L79.9589 58.4577ZM43.8385 29.7316C42.8628 29.7318 41.9089 29.4649 41.0976 28.9646C40.2862 28.4644 39.6538 27.7533 39.2802 26.9213C38.9067 26.0892 38.8088 25.1736 38.999 24.2903C39.1892 23.4069 39.6588 22.5954 40.3487 21.9585C41.0385 21.3215 41.9174 20.8876 42.8743 20.7118C43.8312 20.5359 44.8232 20.6259 45.7247 20.9704C46.6262 21.3149 47.3967 21.8985 47.939 22.6473C48.4812 23.396 48.7707 24.2764 48.7708 25.177C48.771 25.7751 48.6435 26.3672 48.3957 26.9198C48.1479 27.4723 47.7846 27.9744 47.3266 28.3973C46.8685 28.8202 46.3248 29.1557 45.7263 29.3847C45.1278 29.6136 44.4863 29.7315 43.8385 29.7316ZM48.089 58.4577H39.5791V33.186H48.089V58.4577ZM84.197 13.337H35.3074C34.1977 13.3254 33.1285 13.721 32.3346 14.4367C31.5408 15.1525 31.0872 16.1299 31.0737 17.1542V62.4703C31.0868 63.4951 31.54 64.4732 32.3338 65.1897C33.1277 65.9062 34.1972 66.3026 35.3074 66.2917H84.197C85.3094 66.3045 86.3819 65.9093 87.1789 65.1928C87.9758 64.4763 88.4321 63.4971 88.4475 62.4703V17.151C88.4317 16.1246 87.9751 15.1461 87.1781 14.4303C86.3811 13.7146 85.3089 13.3201 84.197 13.3337" fill="#FFFFFE"/>
<path d="M94.9765 59.4442C93.9422 59.4534 92.9539 59.8403 92.2278 60.5203C91.5018 61.2003 91.0969 62.118 91.1019 63.0727C91.1069 64.0275 91.5213 64.9416 92.2544 65.6151C92.9875 66.2886 93.9798 66.6667 95.0141 66.6667C96.0484 66.6667 97.0407 66.2886 97.7738 65.6151C98.5069 64.9416 98.9213 64.0275 98.9263 63.0727C98.9313 62.118 98.5264 61.2003 97.8004 60.5203C97.0743 59.8403 96.086 59.4534 95.0517 59.4442H94.9765ZM94.9765 66.2532C94.2981 66.2636 93.6316 66.0881 93.0612 65.7489C92.4909 65.4097 92.0423 64.9219 91.7723 64.3474C91.5023 63.7728 91.4228 63.1373 91.5441 62.521C91.6654 61.9048 91.9819 61.3357 92.4536 60.8855C92.9253 60.4353 93.531 60.1244 94.1942 59.992C94.8573 59.8596 95.5481 59.9117 96.1792 60.1417C96.8103 60.3717 97.3533 60.7693 97.7396 61.2841C98.1259 61.799 98.3381 62.4081 98.3494 63.0343V63.0874C98.3684 63.9089 98.0332 64.7037 97.4174 65.2971C96.8017 65.8905 95.9558 66.2338 95.0659 66.2516H94.9774" fill="black"/>
</svg>
